#!OML:ASF H:\Martial Arts Walks\Project 1\Capture day 1\Session 1\male.ASF
:FULLY-SPECIFIED
:DEGREES
1922
root -3.43406 15.9494 -48.0583 5.8786 -7.95486 -2.61461
lowerback 13.3701 2.58362 1.26136
upperback 0.594359 3.76453 2.11547
thorax -6.93382 1.82604 0.807484
lowerneck -0.279111 -0.819718 -3.3709
upperneck -5.00452 -1.07068 1.57364
head -1.47894 -0.501257 1.07046
rclavicle 4.11484e-014 -1.19271e-015
rhumerus -21.171 22.565 -70.4138
rradius 53.1631
rwrist -10.3693
rhand -9.07701 -28.5529
rfingers 7.12502
rthumb 16.8723 -57.8399
lclavicle 4.11484e-014 -1.19271e-015
lhumerus -33.6756 -6.21111 86.2277
lradius 48.4938
lwrist -7.77762
lhand -14.3924 31.2484
lfingers 7.12502
lthumb 11.7507 -299.101
rfemur -20.6638 -5.87842 24.7318
rtibia 55.6008
rfoot -25.3934 -26.8495
rtoes -17.9844
lfemur -52.9354 11.5391 -14.3774
ltibia 70.3254
lfoot -2.82273 6.19686
ltoes 1.77353
1923
root -3.44218 15.9879 -48.159 5.99453 -7.49697 -2.47867
lowerback 13.2931 2.54823 1.15921
upperback 0.526725 3.70177 2.09741
thorax -6.96746 1.79865 0.859512
lowerneck -0.337359 -0.939015 -3.50204
upperneck -4.93044 -1.2256 1.67354
head -1.44073 -0.578298 1.12496
rclavicle 1.23246e-014 1.19271e-014
rhumerus -21.3072 22.2029 -70.6169
rradius 52.5817
rwrist -10.2787
rhand -9.11035 -28.3923
rfingers 7.12502
rthumb 16.8402 -57.6821
lclavicle 1.23246e-014 1.19271e-014
lhumerus -33.465 -6.24746 86.3001
lradius 48.0558
lwrist -8.12784
lhand -14.385 31.1987
lfingers 7.12502
lthumb 11.7578 -299.151
rfemur -21.0505 -6.18187 24.7506
rtibia 55.321
rfoot -25.1098 -26.5722
rtoes -17.5996
lfemur -52.5698 11.5353 -14.3884
ltibia 71.5911
lfoot -2.47267 6.06622
ltoes 2.47973
1924
root -3.44969 16.026 -48.2567 6.12074 -7.04205 -2.34217
lowerback 13.1988 2.51475 1.04668
upperback 0.457348 3.63965 2.07852
thorax -6.99365 1.77208 0.917047
lowerneck -0.384686 -1.05944 -3.62719
upperneck -4.86422 -1.38235 1.77116
head -1.40655 -0.656308 1.17781
rclavicle 2.46493e-014 2.0276e-014
rhumerus -21.4804 21.8353 -70.8311
rradius 52.0339
rwrist -10.2008
rhand -9.1148 -28.3215
rfingers 7.12502
rthumb 16.8359 -57.6117
lclavicle 2.46493e-014 2.0276e-014
lhumerus -33.2481 -6.29867 86.373
lradius 47.6257
lwrist -8.49917
lhand -14.3365 31.1879
lfingers 7.12502
lthumb 11.8046 -299.165
rfemur -21.4379 -6.46499 24.7669
rtibia 55.0349
rfoot -24.797 -26.3225
rtoes -17.2267
lfemur -52.167 11.495 -14.3445
ltibia 72.7262
lfoot -2.05757 5.878
ltoes 3.29294
1925
root -3.45654 16.0646 -48.3513 6.24765 -6.5957 -2.20245
lowerback 13.1046 2.48273 0.925206
upperback 0.39059 3.57791 2.05645
thorax -7.01723 1.74601 0.976156
lowerneck -0.460248 -1.17795 -3.74163
upperneck -4.78753 -1.53562 1.86117
head -1.36402 -0.732621 1.22583
rclavicle -7.45443e-015 -1.51076e-014
rhumerus -21.6676 21.4776 -71.0555
rradius 51.503
rwrist -10.1387
rhand -8.97403 -28.518
rfingers 7.12502
rthumb 16.9714 -57.7965
lclavicle -7.45443e-015 -1.51076e-014
lhumerus -33.0162 -6.36484 86.4428
lradius 47.2013
lwrist -8.8752
lhand -14.2682 31.212
lfingers 7.12502
lthumb 11.8705 -299.144
rfemur -21.8118 -6.72665 24.7754
rtibia 54.7366
rfoot -24.4798 -26.0806
rtoes -16.821
lfemur -51.7133 11.4233 -14.2507
ltibia 73.7249
lfoot -1.61521 5.65424
ltoes 4.21192
1926
root -3.46271 16.1037 -48.4432 6.37327 -6.15616 -2.06244
lowerback 13.01 2.45425 0.801807
upperback 0.322618 3.52041 2.03
thorax -7.04151 1.72206 1.03087
lowerneck -0.517082 -1.2972 -3.84298
upperneck -4.72279 -1.69062 1.94481
head -1.32826 -0.809892 1.2698
rclavicle -3.43897e-014 -9.14409e-015
rhumerus -21.8858 21.1111 -71.2945
rradius 50.9877
rwrist -10.0685
rhand -8.91989 -28.6303
rfingers 7.12502
rthumb 17.0236 -57.9043
lclavicle -3.43897e-014 -9.14409e-015
lhumerus -32.7805 -6.45855 86.5131
lradius 46.7821
lwrist -9.25225
lhand -14.214 31.1747
lfingers 7.12502
lthumb 11.9228 -299.185
rfemur -22.1706 -6.97909 24.7787
rtibia 54.4233
rfoot -24.1485 -25.8461
rtoes -16.4
lfemur -51.2123 11.3235 -14.1082
ltibia 74.5831
lfoot -1.18138 5.42084
ltoes 5.19833
1927
root -3.46783 16.1438 -48.5315 6.48606 -5.74476 -1.92443
lowerback 12.9183 2.4334 0.682571
upperback 0.272158 3.47283 1.99761
thorax -7.048 1.70279 1.07529
lowerneck -0.618067 -1.41825 -3.93738
upperneck -4.64957 -1.84623 2.02667
head -1.28196 -0.887453 1.3112
rclavicle -1.65985e-014 -1.59028e-014
rhumerus -22.1007 20.7421 -71.5385
rradius 50.4854
rwrist -9.99789
rhand -8.8296 -28.7749
rfingers 7.12502
rthumb 17.1105 -58.0415
lclavicle -1.65985e-014 -1.59028e-014
lhumerus -32.5012 -6.56576 86.5767
lradius 46.3499
lwrist -9.62687
lhand -14.1896 31.0783
lfingers 7.12502
lthumb 11.9463 -299.283
rfemur -22.4932 -7.2142 24.7715
rtibia 54.0896
rfoot -23.8118 -25.601
rtoes -15.9621
lfemur -50.641 11.2172 -13.9194
ltibia 75.3003
lfoot -0.811516 5.21661
ltoes 6.14064
1928
root -3.47198 16.1845 -48.6173 6.5988 -5.32912 -1.7931
lowerback 12.8314 2.40948 0.575772
upperback 0.217277 3.42315 1.96255
thorax -7.0608 1.68201 1.10997
lowerneck -0.702481 -1.53819 -4.02597
upperneck -4.58115 -2.00088 2.10843
head -1.23987 -0.964628 1.35166
rclavicle -4.83047e-014 -1.43125e-014
rhumerus -22.3388 20.3839 -71.799
rradius 49.983
rwrist -9.9075
rhand -8.71474 -28.904
rfingers 7.12502
rthumb 17.221 -58.1609
lclavicle -4.83047e-014 -1.43125e-014
lhumerus -32.2188 -6.69555 86.6398
lradius 45.9153
lwrist -9.99324
lhand -14.1771 30.9812
lfingers 7.12502
lthumb 11.9584 -299.38
rfemur -22.7948 -7.45936 24.7647
rtibia 53.7344
rfoot -23.4802 -25.3424
rtoes -15.4818
lfemur -50.034 11.0834 -13.686
ltibia 75.8783
lfoot -0.514993 5.05213
ltoes 6.93392
1929
root -3.475 16.2251 -48.7003 6.71335 -4.93241 -1.68269
lowerback 12.7732 2.38595 0.479361
upperback 0.150634 3.37695 1.93529
thorax -7.10217 1.66259 1.14497
lowerneck -0.837093 -1.64278 -4.12978
upperneck -4.46544 -2.13236 2.21055
head -1.17453 -1.03037 1.39971
rclavicle 7.25564e-015 2.18663e-014
rhumerus -22.5875 20.0601 -72.0733
rradius 49.4618
rwrist -9.80258
rhand -8.81793 -28.6977
rfingers 7.12502
rthumb 17.1217 -57.9633
lclavicle 7.25564e-015 2.18663e-014
lhumerus -31.9495 -6.81068 86.7028
lradius 45.4909
lwrist -10.3571
lhand -14.1716 30.9002
lfingers 7.12502
lthumb 11.9636 -299.462
rfemur -23.0724 -7.66256 24.7724
rtibia 53.3554
rfoot -23.1023 -25.112
rtoes -15.0479
lfemur -49.3918 10.9497 -13.3971
ltibia 76.3236
lfoot -0.374771 4.95854
ltoes 7.21507
1930
root -3.47723 16.2667 -48.7814 6.83315 -4.53399 -1.58838
lowerback 12.7368 2.35895 0.392345
upperback 0.0595029 3.32896 1.91402
thorax -7.18168 1.64204 1.18004
lowerneck -0.923297 -1.72264 -4.25749
upperneck -4.36128 -2.23139 2.35186
head -1.12156 -1.08007 1.46505
rclavicle 2.60408e-014 1.47101e-014
rhumerus -22.8895 19.7639 -72.3679
rradius 48.9425
rwrist -9.6805
rhand -9.00771 -28.3514
rfingers 7.12502
rthumb 16.939 -57.6328
lclavicle 2.60408e-014 1.47101e-014
lhumerus -31.7256 -6.91909 86.7703
lradius 45.0877
lwrist -10.7294
lhand -14.1868 30.8235
lfingers 7.12502
lthumb 11.9489 -299.538
rfemur -23.3327 -7.82702 24.7936
rtibia 52.9574
rfoot -22.6996 -24.9181
rtoes -14.6222
lfemur -48.7279 10.806 -13.0624
ltibia 76.6336
lfoot -0.352341 4.91308
ltoes 7.14814
1931
root -3.47851 16.3086 -48.8602 6.95465 -4.15335 -1.51036
lowerback 12.7261 2.33224 0.310243
upperback -0.0445847 3.28315 1.89939
thorax -7.28968 1.62252 1.21776
lowerneck -1.02814 -1.77756 -4.42071
upperneck -4.23558 -2.29486 2.54157
head -1.05895 -1.11201 1.55157
rclavicle -4.19436e-014 -7.55382e-015
rhumerus -23.2142 19.503 -72.6744
rradius 48.4189
rwrist -9.55227
rhand -9.2326 -27.9908
rfingers 7.12502
rthumb 16.7225 -57.2906
lclavicle -4.19436e-014 -7.55382e-015
lhumerus -31.5328 -7.00965 86.8371
lradius 44.7136
lwrist -11.1119
lhand -14.213 30.7535
lfingers 7.12502
lthumb 11.9237 -299.606
rfemur -23.5746 -7.92909 24.8251
rtibia 52.5496
rfoot -22.2774 -24.7665
rtoes -14.2102
lfemur -48.0391 10.6648 -12.6846
ltibia 76.8151
lfoot -0.432757 4.90333
ltoes 6.73167
1932
root -3.47846 16.3484 -48.9369 7.07139 -3.78496 -1.42901
lowerback 12.7015 2.30929 0.229051
upperback -0.141489 3.24143 1.87739
thorax -7.38177 1.60499 1.24715
lowerneck -1.08552 -1.84476 -4.57192
upperneck -4.14142 -2.37704 2.72025
head -1.01359 -1.15329 1.63377
rclavicle -2.48481e-014 -1.86858e-014
rhumerus -23.5651 19.2358 -72.9896
rradius 47.9211
rwrist -9.41322
rhand -9.47287 -27.6301
rfingers 7.12502
rthumb 16.4912 -56.9492
lclavicle -2.48481e-014 -1.86858e-014
lhumerus -31.3297 -7.10869 86.8989
lradius 44.3361
lwrist -11.5155
lhand -14.2576 30.6597
lfingers 7.12502
lthumb 11.8807 -299.697
rfemur -23.8072 -7.96465 24.8442
rtibia 52.1556
rfoot -21.8337 -24.6802
rtoes -13.84
lfemur -47.335 10.5053 -12.2858
ltibia 76.8795
lfoot -0.561251 4.91836
ltoes 6.19636
